<svg xmlns="http://www.w3.org/2000/svg" viewBox="0 0 1536 1024" role="img" aria-labelledby="title">
  <title id="title">IT-SICHERHEIT</title>
  <defs>
    <linearGradient id="bg" x1="0" y1="0" x2="1" y2="1">
      <stop offset="0" stop-color="#ffffff"/>
      <stop offset="1" stop-color="#eef5f8"/>
    </linearGradient>
    <pattern id="grid" width="64" height="64" patternUnits="userSpaceOnUse">
      <path d="M64 0H0V64" fill="none" stroke="#00325f" stroke-opacity=".045" stroke-width="2"/>
    </pattern>
  </defs>
  <rect width="1536" height="1024" fill="url(#bg)"/>
  <rect width="1536" height="1024" fill="url(#grid)"/>
  <rect x="0" y="0" width="20" height="1024" fill="#0086c0"/>
  <circle cx="1370" cy="140" r="200" fill="#0086c0" opacity=".07"/>
  <circle cx="150" cy="900" r="240" fill="#00325f" opacity=".04"/>
  <g transform="translate(268 431) scale(3.4)">
    <path fill="#0086c0" d="M269.7 3.7v6.2h8.5v22.4h7.2V9.8h8.6V3.7h-24.3zm-9.8 28.5h7.1V3.7h-7.1v28.5zm-3.2-22.4V3.7h-22.3v28.5h22.3V26h-15.1v-5.5h13.3v-5.6h-13.3V9.8h15.1zm-33.4-6.1v11.2h-12V3.7h-7.2v28.5h7.2V21h12v11.2h7.2V3.7h-7.2zm-42 6.1h9c.9 0 1.7.3 2.3.9.6.6 1 1.4 1 2.4s-.3 1.8-1 2.3c-.6.5-1.4.8-2.3.8h-9V9.8zm18.8-.7c-.5-1.2-1.2-2.1-2.1-3-.9-.8-1.9-1.4-3.1-1.9-1.2-.4-2.6-.7-4-.7h-16.7V32h7.2V22h6.7l4.6 10.2h7.7l-5-11c.8-.3 1.6-.7 2.3-1.1.7-.4 1.3-1 1.8-1.6.5-.6.9-1.4 1.1-2.3.3-.9.4-1.9.4-3.2-.2-1.4-.4-2.7-.9-3.9m-29.2.7V3.7h-22.3v28.5h22.3V26h-15.1v-5.5h13.3v-5.6h-13.3V9.8h15.1zm-33.4-6.1v11.2h-12V3.7h-7.2v28.5h7.2V21h12v11.2h7.2V3.7h-7.2zm-27.8 19.9c-.9 1-1.9 1.8-3 2.2-1.1.5-2.4.7-3.7.7-1.3 0-2.5-.2-3.6-.6-1-.4-1.9-1-2.7-1.8-.7-.8-1.3-1.7-1.7-2.7-.4-1-.6-2.2-.6-3.4 0-1.2.2-2.4.6-3.4.4-1 .9-1.9 1.7-2.7.7-.7 1.6-1.3 2.7-1.8 1-.4 2.2-.7 3.6-.7 1.5 0 2.8.3 3.9.8s2 1.3 2.8 2.2l5.7-4.1c-1.5-1.7-3.3-3-5.4-4-2.2-.8-4.5-1.3-7-1.3-2.2 0-4.2.4-6.1 1.1-1.9.7-3.6 1.7-5 3.1-1.4 1.3-2.5 2.9-3.3 4.7-.8 1.8-1.2 3.9-1.2 6.1 0 2.2.4 4.2 1.2 6 .8 1.8 1.9 3.4 3.3 4.7 1.4 1.3 3.1 2.3 5 3.1 1.9.7 4 1.1 6.2 1.1 2.3 0 4.5-.4 6.7-1.3 2.2-.8 4-2.2 5.7-4.1l-5.8-3.9zm-32.9 8.6H84V3.7h-7.1v28.5zm-15-17.8l-1.2-.2c-1-.1-1.7-.3-2.3-.4-.6-.2-1-.4-1.3-.6-.3-.2-.5-.5-.6-.7-.1-.3-.1-.6-.1-.9 0-.7.4-1.3 1.3-1.7.9-.4 2.1-.7 3.6-.7.5 0 1.1.1 1.7.2.6.1 1.2.3 1.8.4.6.2 1.1.4 1.7.7.5.3 1 .5 1.4.8l4.7-4.6c-1.5-1.2-3.1-2.1-4.9-2.8-1.8-.6-3.9-.9-6.2-.9-1.9 0-3.6.2-5.1.6-1.5.4-2.8 1-3.8 1.7C51.4 6 50.6 6.9 50 8c-.6 1.1-.8 2.2-.8 3.6 0 1.6.2 2.9.6 3.9.4 1.1 1.1 1.9 1.9 2.7.9.7 2 1.3 3.3 1.6 1.3.4 3 .7 4.8.9l1.1.1c1.8.2 3.1.5 4 1 .8.5 1.3 1.2 1.3 2s-.5 1.5-1.4 2c-.9.6-2.4.9-4.5.9-1.3 0-2.7-.2-4.1-.6-1.4-.4-2.6-1.1-3.6-1.9l-4.4 4.6c.7.8 1.4 1.4 2.3 1.9.9.5 1.9 1 3 1.3 1.1.3 2.2.6 3.4.8 1.2.2 2.3.2 3.5.2 2.1 0 4-.2 5.6-.7 1.6-.4 3-1.1 4.1-1.9 1.1-.8 2-1.8 2.5-2.9.6-1.1.9-2.4.9-3.8 0-2.6-.9-4.7-2.7-6.2-1.9-1.6-4.8-2.6-9-3.1m-15.6 3.1H35.4v5.7h10.7c.1 0 .1-5.7.1-5.7zM9.8 3.7v6.2h8.5v22.4h7.2V9.8h8.6V3.7H9.8zM0 32.2h7.1V3.7H0v28.5z"/>
      <path fill="#00325f" d="M84.5 36.8v7.6H83v-5l-1.8 2.7h-1l-1.8-2.7h-.1v5h-1.5v-7.6h1.4l2.4 3.7h.1l2.4-3.7zm3.8 2.1c.8 0 1.4.3 1.7.9l.3-.7h1.3v5.3h-1.3l-.3-.7c-.4.6-.9.9-1.7.9-1.7 0-2.6-1.3-2.6-2.8 0-1.7 1-2.9 2.6-2.9m.4 4.2c.9 0 1.4-.7 1.4-1.5s-.5-1.5-1.4-1.5c-.9 0-1.4.7-1.4 1.5 0 .9.4 1.5 1.4 1.5m4.3 3.3l.4-1.4s.8.5 1.9.5c1.6 0 1.9-.5 1.9-1.7v-.2c-.4.6-.9.9-1.7.9-1.7 0-2.6-1.3-2.6-2.8 0-1.6 1-2.8 2.6-2.8.8 0 1.4.3 1.7.9l.3-.7h1.3v4.8c0 2.2-1.1 3.1-3.4 3.1-1.8-.1-2.4-.6-2.4-.6m4.1-4.7c0-.8-.5-1.5-1.4-1.5-.9 0-1.4.7-1.4 1.5s.5 1.5 1.4 1.5c.9 0 1.4-.7 1.4-1.5m5.3-2.8c.8 0 1.4.3 1.7.9l.3-.7h1.3v5.3h-1.3l-.3-.7c-.4.6-.9.9-1.7.9-1.7 0-2.6-1.3-2.6-2.8 0-1.7.9-2.9 2.6-2.9m.3 4.2c.9 0 1.4-.7 1.4-1.5s-.5-1.5-1.4-1.5c-.9 0-1.4.7-1.4 1.5 0 .9.5 1.5 1.4 1.5m9.4-.1v1.4h-5.3v-1.3l2.9-2.7h-2.8V39h5.1v1.3l-2.8 2.7zm2.7-4.7h-1.6v-1.5h1.6v1.5zm-1.6.7h1.6v5.3h-1.6V39zm8.8 2.7v2.7h-1.5v-2.6c0-1-.4-1.6-1.4-1.6-.9 0-1.5.5-1.5 1.6v2.6H116V39h1.3l.2.7c.3-.5.9-.9 1.8-.9 1.8.1 2.7 1 2.7 2.9m6.1-2.9v.2h1.1v1.4h-1.1v4h-1.5v-4h-.7V39h.7v-.2c0-1.4.6-2.1 2.3-2.1.2 0 .5 0 .7.1v1.3c-.1 0-.3-.1-.5-.1-.7.1-1 .3-1 .8m2 2.9V39h1.5v2.6c0 1 .4 1.6 1.4 1.6.9 0 1.5-.5 1.5-1.6V39h1.6v5.3h-1.3l-.2-.7c-.3.5-.9.9-1.8.9-1.8 0-2.7-.9-2.7-2.8m2.6-3.8h-1.5v-1.5h1.5v1.5zm2.3 0h-1.5v-1.5h1.5v1.5zm5.9 2.7c-.2-.2-.5-.2-.7-.2-.8 0-1.3.5-1.3 1.5v2.6h-1.6V39h1.3l.2.7c.3-.5.7-.9 1.6-.9.5 0 .8.2 1.1.3 0 .1-.6 1.5-.6 1.5zm12.2-3.8v7.6h-1.6v-5l-1.8 2.7h-1l-1.8-2.7v5h-1.6v-7.6h1.5l2.4 3.7 2.4-3.7zm3.8 2.1c.8 0 1.4.3 1.7.9l.3-.7h1.3v5.3h-1.3l-.3-.7c-.4.6-.9.9-1.7.9-1.7 0-2.6-1.3-2.6-2.8 0-1.7 1-2.9 2.6-2.9m.4 4.2c.9 0 1.4-.7 1.4-1.5s-.5-1.5-1.4-1.5c-.9 0-1.4.7-1.4 1.5-.1.9.4 1.5 1.4 1.5m10.2-1.4v2.7H166v-2.6c0-1-.4-1.6-1.4-1.6-.9 0-1.5.5-1.5 1.6v2.6h-1.6V39h1.3l.2.7c.3-.5.9-.9 1.8-.9 1.8.1 2.7 1 2.7 2.9m3.6-2.8c.8 0 1.4.3 1.7.9l.3-.7h1.3v5.3h-1.3l-.3-.7c-.4.6-.9.9-1.7.9-1.7 0-2.6-1.3-2.6-2.8 0-1.7 1-2.9 2.6-2.9m.4 4.2c.9 0 1.4-.7 1.4-1.5s-.5-1.5-1.4-1.5c-.9 0-1.4.7-1.4 1.5 0 .9.4 1.5 1.4 1.5m4.2 3.3l.4-1.4s.8.5 1.9.5c1.6 0 1.9-.5 1.9-1.7v-.2c-.4.6-.9.9-1.7.9-1.7 0-2.6-1.3-2.6-2.8 0-1.6 1-2.8 2.6-2.8.8 0 1.4.3 1.7.9l.3-.7h1.3v4.8c0 2.2-1.1 3.1-3.4 3.1-1.7-.1-2.4-.6-2.4-.6m4.2-4.7c0-.8-.5-1.5-1.4-1.5-.9 0-1.4.7-1.4 1.5s.5 1.5 1.4 1.5c.9 0 1.4-.7 1.4-1.5m8.4.5H184c.2.6.6 1 1.4 1 .5 0 .9-.2 1.2-.6l1.3.6c-.5.8-1.5 1.3-2.5 1.3-1.6 0-3-1.3-3-2.8 0-1.6 1.3-2.8 3-2.8s2.9 1.3 2.9 2.9v.4zm-1.5-1c-.2-.5-.6-1-1.4-1-.7 0-1.2.4-1.4 1h2.8zm11.7.5v2.7h-1.6v-2.6c0-1-.2-1.6-1.1-1.6-.8 0-1.2.5-1.2 1.6v2.6H193v-2.6c0-1-.2-1.6-1.1-1.6-.8 0-1.2.5-1.2 1.6v2.6h-1.5V39h1.2l.2.7c.3-.5.8-.9 1.6-.9.9 0 1.5.3 1.9.9.3-.5.8-.9 2-.9 1.6.1 2.4.9 2.4 2.9m6.9.5h-4.3c.2.6.6 1 1.4 1 .5 0 .9-.2 1.2-.6l1.3.6c-.5.8-1.5 1.3-2.5 1.3-1.6 0-3-1.3-3-2.8 0-1.6 1.3-2.8 3-2.8s2.9 1.3 2.9 2.9v.4zm-1.6-1c-.2-.5-.6-1-1.4-1-.7 0-1.2.4-1.4 1h2.8zm8.5.5v2.7h-1.5v-2.6c0-1-.4-1.6-1.4-1.6-.9 0-1.5.5-1.5 1.6v2.6h-1.6V39h1.3l.2.7c.3-.5.9-.9 1.8-.9 1.8.1 2.7 1 2.7 2.9m4.1 2.8h-.4c-1.7 0-2.3-.7-2.3-2.1v-1.9h-.7V39h.7v-1.5l1.5-.3V39h1.1v1.4h-1.1v1.9c0 .5.3.7.9.7h.2v1.5zm4-2.8V39h1.5v2.6c0 1 .4 1.6 1.4 1.6.9 0 1.5-.5 1.5-1.6V39h1.6v5.3H225l-.2-.7c-.3.5-.9.9-1.8.9-1.7 0-2.6-.9-2.6-2.8m13.1 0v2.7H232v-2.6c0-1-.4-1.6-1.4-1.6-.9 0-1.5.5-1.5 1.6v2.6h-1.6V39h1.3l.2.7c.3-.5.9-.9 1.8-.9 1.8.1 2.7 1 2.7 2.9m5.4-2v-2.9h1.6v7.5h-1.3l-.2-.7c-.4.6-1 .9-1.8.9-1.7 0-2.6-1.3-2.6-2.8 0-1.6 1-2.8 2.6-2.8.8 0 1.4.3 1.7.8m.1 2c0-.8-.5-1.5-1.4-1.5-.9 0-1.4.7-1.4 1.5s.5 1.5 1.4 1.5c.8-.1 1.4-.7 1.4-1.5m11.8-4.9v1.4h-2.4v6.2h-1.5v-6.2h-2.5v-1.4zm5.5 5.4H252c.2.6.6 1 1.4 1 .5 0 .9-.2 1.2-.6l1.3.6c-.5.8-1.5 1.3-2.5 1.3-1.6 0-3-1.3-3-2.8 0-1.6 1.3-2.8 3-2.8s2.9 1.3 2.9 2.9v.4zm-1.5-1c-.2-.5-.6-1-1.4-1-.7 0-1.2.4-1.4 1h2.8zm7.8 2c-.5.8-1.5 1.3-2.5 1.3-1.6 0-3-1.3-3-2.8 0-1.6 1.3-2.8 3-2.8 1 0 1.9.5 2.5 1.3l-1.3.7c-.2-.4-.6-.6-1.2-.6-.9 0-1.4.7-1.4 1.4 0 .9.5 1.5 1.4 1.5.5 0 .9-.2 1.2-.6l1.3.6zm6.7-1.5v2.7h-1.5v-2.6c0-1-.4-1.6-1.3-1.6s-1.5.5-1.5 1.6v2.6h-1.6v-7.5h1.6v2.9c.3-.5.9-.9 1.8-.9 1.6 0 2.5.9 2.5 2.8m7.3 0v2.7H275v-2.6c0-1-.4-1.6-1.4-1.6-.9 0-1.5.5-1.5 1.6v2.6h-1.6V39h1.3l.2.7c.3-.5.9-.9 1.8-.9 1.9.1 2.8 1 2.8 2.9m2.8-3.4h-1.6v-1.5h1.6v1.5zm-1.5.7h1.6v5.3h-1.6V39zm8.5 5.4h-1.7l-1.7-2.3-.7.7v1.6h-1.6v-7.6h1.6v4.3l2-2.1h1.9l-2.2 2.1z"/>
  </g>
</svg>

